<svg
  version="1.0"
  xmlns="http://www.w3.org/2000/svg"
  viewBox="0 0 4166.400000 1829.600000"
  preserveAspectRatio="xMidYMid meet"
>
  <g
    transform="translate(0.000000,1829.600000) scale(0.080000,-0.080000)"
    fill="#000000"
    stroke="none"
  >
    <path
      d="M9725 22859 c-273 -23 -541 -118 -780 -276 -137 -91 -337 -292 -429
-430 -193 -291 -278 -571 -279 -918 0 -183 15 -300 59 -454 108 -373 360 -707
692 -918 l72 -47 -2 -765 -3 -766 -110 -7 c-1211 -78 -2463 -413 -3535 -944
-1239 -614 -2297 -1451 -3202 -2536 -920 -1102 -1547 -2332 -1908 -3743 -51
-196 -305 -1423 -298 -1431 2 -1 271 1 598 6 327 5 755 10 950 10 458 1 584
18 807 109 321 133 589 385 732 692 22 46 73 185 114 309 421 1266 1103 2274
2107 3114 913 765 1976 1252 3149 1446 867 142 1804 130 2641 -36 1126 -223
2129 -722 3025 -1503 156 -136 466 -442 611 -602 1101 -1216 1667 -2617 1745
-4317 35 -767 -95 -1562 -386 -2356 -103 -281 -276 -684 -419 -975 -43 -87
-56 -125 -56 -159 0 -58 32 -114 81 -141 l38 -22 1073 4 c1066 3 1074 3 1163
25 390 95 669 279 887 583 113 158 176 307 238 564 245 1010 326 2091 235
3135 -140 1598 -691 3159 -1594 4512 -851 1274 -1977 2307 -3356 3075 -1058
590 -2251 977 -3460 1123 -93 11 -189 23 -212 26 l-43 5 0 783 0 782 42 24
c146 82 376 296 491 457 251 352 351 816 267 1246 -106 545 -482 1002 -992
1205 -234 93 -502 133 -753 111z"
    />
    <path
      d="M23384 15206 c-17 -7 -40 -26 -52 -41 -21 -26 -22 -39 -22 -196 l0
-169 -340 0 c-285 0 -346 -2 -370 -15 -78 -41 -80 -169 -3 -221 26 -18 54 -19
371 -22 l342 -3 0 -156 0 -155 33 -33 c44 -44 93 -53 143 -29 71 36 79 56 82
225 l3 149 749 0 749 0 3 -149 c3 -169 11 -189 82 -225 50 -24 99 -15 143 29
l33 33 0 155 0 156 338 3 c312 3 339 4 365 22 75 50 76 172 3 220 -22 14 -66
16 -366 16 l-340 0 0 171 0 171 -33 33 c-44 44 -93 53 -143 29 -72 -36 -79
-55 -82 -240 l-3 -164 -750 0 -749 0 0 153 c0 125 -3 158 -18 186 -33 66 -106
95 -168 67z"
    />
    <path
      d="M45436 15210 c-15 -5 -37 -17 -48 -27 -50 -45 -48 -8 -48 -1008 0
-1030 -3 -985 62 -1025 33 -20 47 -20 1220 -20 1282 0 1264 -1 1398 53 240 97
412 304 464 559 13 63 16 153 16 493 0 461 0 458 -64 489 -63 30 -136 13 -171
-40 -19 -27 -20 -54 -25 -464 -5 -425 -6 -436 -28 -492 -70 -174 -213 -295
-387 -327 -40 -8 -401 -11 -1142 -11 l-1083 0 0 868 c0 841 -1 868 -20 899
-29 49 -87 70 -144 53z"
    />
    <path
      d="M26746 15189 c-53 -42 -56 -57 -56 -331 0 -285 5 -308 70 -340 33
-17 100 -18 978 -18 518 0 942 -4 942 -8 0 -5 -15 -65 -34 -134 -65 -235 -188
-508 -336 -747 -74 -120 -237 -342 -312 -424 l-43 -48 -650 522 c-357 287
-663 530 -680 540 -59 37 -144 17 -179 -41 -21 -36 -21 -104 0 -138 9 -15 311
-263 671 -551 l654 -524 -53 -55 c-276 -282 -774 -625 -1268 -872 -108 -54
-186 -99 -199 -116 -33 -42 -30 -124 7 -164 31 -36 88 -52 135 -39 45 12 355
170 517 264 339 195 688 448 940 680 47 44 97 90 112 103 l26 24 654 -524
c359 -288 664 -531 678 -541 14 -10 43 -17 68 -17 89 0 138 54 130 141 -3 27
-11 56 -18 64 -11 13 -1291 1045 -1324 1067 -7 4 1 20 20 40 114 121 312 402
424 603 149 266 271 585 320 838 l11 57 215 0 c233 0 252 4 293 56 25 32 28
101 6 144 -33 64 46 60 -1295 60 l-1220 0 0 181 c0 198 -5 220 -60 253 -40 23
-111 21 -144 -5z"
    />
    <path
      d="M38242 15176 l-37 -34 -3 -274 c-2 -260 -1 -275 18 -306 39 -63 27
-62 701 -62 l611 0 -5 -397 c-3 -221 -10 -429 -16 -468 -6 -38 -18 -109 -27
-157 l-16 -88 -763 0 -762 0 -34 -23 c-22 -15 -39 -38 -49 -65 -13 -37 -13
-47 0 -84 10 -27 27 -50 49 -65 l34 -23 718 0 c396 0 719 -3 719 -6 0 -4 -24
-57 -54 -118 -189 -388 -513 -690 -965 -898 -108 -49 -295 -115 -526 -185 -46
-14 -65 -25 -82 -52 -45 -66 -18 -157 55 -188 34 -14 43 -14 112 2 290 68 657
224 896 381 340 224 624 554 769 893 22 50 42 90 46 89 4 -2 359 -310 788
-684 630 -550 788 -683 817 -688 72 -14 137 29 150 99 14 77 29 62 -732 726
l-715 624 726 5 727 5 35 39 c33 36 35 41 31 93 -4 45 -11 60 -37 86 l-31 32
-831 3 -832 2 8 43 c4 23 14 80 22 127 11 63 16 195 20 513 l5 427 709 0 c773
0 742 -2 788 56 25 32 28 101 6 144 -33 64 61 60 -1449 60 l-1375 0 -3 191 -3
191 -37 34 c-33 29 -45 34 -88 34 -43 0 -55 -5 -88 -34z"
    />
    <path
      d="M49433 15190 c-68 -41 -64 60 -61 -1402 3 -1484 -3 -1358 79 -1524
102 -207 297 -356 530 -404 89 -19 143 -20 1050 -20 l956 0 34 23 c22 15 39
38 49 65 13 37 13 47 0 84 -8 22 -28 51 -43 62 -28 21 -34 21 -1015 26 -887 4
-991 7 -1028 22 -84 33 -130 62 -186 116 -68 64 -109 126 -140 208 -22 58 -23
65 -26 677 l-3 617 1172 0 c1048 0 1174 2 1204 16 89 42 97 173 13 224 -33 20
-47 20 -1210 20 l-1178 0 0 551 c0 494 -2 555 -17 586 -32 68 -115 93 -180 53z"
    />
    <path
      d="M30240 14902 c-79 -42 -92 -149 -26 -209 l36 -33 165 0 165 0 0
-2425 0 -2425 -203 0 c-228 0 -257 -7 -289 -71 -32 -61 -17 -125 38 -168 l27
-21 1088 0 1089 0 0 -617 c0 -415 4 -631 11 -657 32 -117 174 -139 234 -36 19
34 20 53 23 673 l3 637 200 0 c168 0 205 3 229 16 59 36 78 119 40 182 -34 55
-66 62 -280 62 l-190 0 0 2425 0 2425 153 0 c104 1 159 5 175 14 60 33 80 122
42 184 -40 66 42 62 -1392 62 -1245 0 -1305 -1 -1338 -18z m2090 -942 l0 -700
-745 0 -745 0 0 700 0 700 745 0 745 0 0 -700z m0 -1700 l0 -740 -745 0 -745
0 0 740 0 740 745 0 745 0 0 -740z m0 -1725 l0 -725 -745 0 -745 0 0 725 0
725 745 0 745 0 0 -725z"
    />
    <path
      d="M34053 14899 c-82 -41 -94 -153 -22 -213 l31 -26 1120 0 1120 0 33
33 c61 61 53 150 -18 201 -28 21 -35 21 -1125 24 -1094 2 -1097 2 -1139 -19z"
    />
    <path
      d="M42630 14909 c-172 -29 -336 -115 -471 -249 -104 -103 -161 -188
-210 -314 -59 -152 -60 -173 -57 -1068 3 -811 4 -813 26 -892 94 -323 329
-553 658 -642 64 -18 113 -19 644 -19 564 0 577 1 655 23 325 90 565 335 648
659 22 88 22 91 22 913 l0 825 -23 90 c-86 339 -352 597 -687 666 -82 17 -140
19 -620 18 -291 -1 -555 -5 -585 -10z m1210 -278 c213 -76 366 -237 427 -452
17 -59 18 -120 18 -864 l0 -800 -27 -80 c-59 -173 -175 -308 -329 -384 -143
-71 -164 -72 -743 -69 l-511 3 -82 28 c-194 65 -338 209 -411 409 l-27 73 -3
792 c-3 892 -4 875 70 1023 59 119 162 221 278 279 142 70 148 70 745 68 526
-3 531 -3 595 -26z"
    />
    <path
      d="M22779 14283 c-56 -35 -59 -49 -59 -318 0 -200 3 -251 15 -275 33
-63 -37 -60 1209 -60 721 0 1163 -4 1213 -10 149 -20 305 -120 377 -243 14
-24 36 -70 48 -103 22 -59 23 -64 28 -784 5 -786 3 -749 61 -784 32 -19 94
-21 129 -3 13 7 35 28 48 47 l23 34 -3 721 c-3 709 -4 721 -26 800 -77 280
-265 473 -542 557 l-75 22 -1122 4 -1123 3 0 155 c0 168 -6 194 -56 233 -33
26 -107 28 -145 4z"
    />
    <path
      d="M34415 14203 c-222 -29 -382 -107 -535 -262 -132 -133 -210 -276
-244 -443 -23 -111 -24 -1101 -1 -1207 73 -350 347 -623 697 -695 67 -14 183
-16 848 -16 665 0 781 2 848 16 351 72 625 347 697 699 14 70 16 154 13 635
-4 539 -4 557 -26 625 -101 321 -324 536 -650 628 -76 21 -89 21 -847 23 -423
1 -783 0 -800 -3z m1622 -286 c163 -55 301 -173 374 -322 69 -142 69 -141 69
-700 0 -556 -1 -568 -67 -705 -50 -104 -177 -231 -283 -283 -143 -69 -123 -68
-978 -65 l-767 3 -73 27 c-101 37 -172 82 -245 155 -70 71 -125 156 -159 246
-22 61 -23 68 -26 582 -3 545 -1 591 41 690 86 207 273 357 495 395 26 4 382
7 792 6 l745 -1 82 -28z"
    />
    <path
      d="M23039 13286 c-119 -33 -226 -126 -282 -243 l-32 -68 0 -360 0 -360
32 -68 c44 -93 119 -169 212 -215 l75 -37 930 -3 c912 -2 932 -2 998 18 124
38 227 137 279 268 22 54 23 73 27 358 4 333 -1 385 -48 481 -52 106 -142 183
-259 223 -59 20 -80 20 -973 19 -705 -1 -923 -4 -959 -13z m1898 -282 c77 -62
78 -66 81 -366 4 -295 -1 -328 -51 -385 -58 -66 -8 -63 -974 -63 -986 0 -913
-6 -978 74 l-30 38 -3 298 c-3 279 -2 302 17 337 23 46 45 67 91 87 31 13 149
15 922 13 l886 -2 39 -31z"
    />
    <path
      d="M46005 12493 c-309 -45 -547 -261 -637 -578 l-23 -80 -3 -1780 c-2
-1682 -1 -1782 15 -1815 24 -47 75 -72 133 -67 35 4 51 13 77 41 l33 36 0 580
0 580 1326 0 1326 0 -4 -272 c-6 -299 -10 -326 -71 -443 -58 -108 -178 -206
-302 -246 -28 -8 -150 -14 -392 -18 l-353 -6 -31 -32 c-25 -24 -33 -42 -36
-80 -5 -58 10 -89 56 -120 34 -23 37 -23 355 -23 382 0 453 10 601 84 209 104
344 268 408 494 l22 77 3 1455 c3 1568 4 1555 -48 1706 -65 187 -205 346 -384
433 -163 80 -90 75 -1121 77 -506 1 -933 -1 -950 -3z m1892 -284 c151 -56 267
-171 321 -322 27 -72 27 -73 30 -429 l4 -358 -1326 0 -1326 0 0 323 c0 177 5
350 10 385 35 213 207 384 423 421 29 5 444 8 922 8 l870 -2 72 -26z m353
-1954 l0 -585 -1325 0 -1325 0 0 585 0 585 1325 0 1325 0 0 -585z"
    />
    <path
      d="M49412 11506 l-37 -34 -3 -1304 c-3 -1483 -8 -1387 80 -1568 44 -91
62 -115 142 -195 127 -127 245 -186 436 -220 71 -13 234 -15 1001 -15 504 0
931 3 948 6 65 13 113 93 97 159 -4 14 -19 40 -35 58 l-29 32 -984 5 -983 5
-67 26 c-134 52 -231 137 -289 251 -57 113 -59 131 -59 736 l0 552 1165 0
c1316 0 1226 -5 1266 76 28 58 20 105 -26 151 l-33 33 -1186 0 -1186 0 0 585
c0 635 0 630 -55 673 -20 16 -42 22 -76 22 -42 0 -55 -5 -87 -34z"
    />
    <path
      d="M23201 11332 c-90 -48 -90 -183 0 -229 19 -10 325 -13 1387 -13
l1362 0 0 -330 0 -330 -1540 0 -1540 0 -36 -33 c-66 -60 -53 -167 26 -209 33
-17 100 -18 1562 -18 l1528 0 0 -305 0 -305 -1673 0 c-1601 0 -1674 -1 -1706
-18 -85 -46 -93 -160 -15 -221 l27 -21 1685 0 1685 0 -5 -222 c-4 -206 -7
-229 -30 -294 -45 -126 -114 -213 -223 -279 -121 -73 -79 -69 -888 -75 l-729
-5 -34 -37 c-56 -62 -45 -148 26 -196 l34 -23 726 3 c710 3 727 4 803 25 246
70 443 249 526 478 40 112 51 202 51 431 l0 194 1615 0 c1781 0 1657 -5 1691
62 21 40 14 120 -12 149 -45 51 31 49 -1689 49 l-1605 0 0 305 0 305 1460 0
c1587 0 1503 -3 1548 55 26 33 29 102 7 145 -33 64 71 60 -1545 60 l-1470 0 0
330 0 330 1234 0 1233 0 34 23 c23 15 38 37 48 66 12 39 12 48 -5 89 -13 31
-30 50 -54 63 -34 18 -121 19 -2750 19 -2611 0 -2717 -1 -2749 -18z"
    />
    <path
      d="M7010 11265 c-182 -38 -330 -116 -469 -249 -127 -123 -215 -270 -264
-443 -21 -75 -22 -95 -22 -538 0 -449 1 -462 23 -545 90 -334 347 -591 683
-682 118 -32 355 -32 474 0 330 90 582 339 677 669 22 76 23 90 23 553 0 465
0 477 -23 555 -31 108 -99 245 -165 330 -138 181 -368 319 -587 354 -88 15
-270 12 -350 -4z"
    />
    <path
      d="M12001 11265 c-373 -84 -639 -343 -738 -717 -13 -52 -17 -134 -20
-462 -3 -261 -1 -427 7 -482 47 -356 291 -655 627 -770 132 -45 224 -58 363
-51 418 20 767 310 872 723 22 86 23 104 23 529 l-1 440 -26 98 c-75 274 -253
491 -503 612 -143 70 -216 87 -390 91 -106 3 -169 -1 -214 -11z"
    />
    <path
      d="M34423 10974 c-20 -10 -40 -32 -53 -59 -21 -42 -21 -48 -18 -1076 l3
-1034 23 -75 c69 -223 239 -413 444 -497 147 -60 187 -63 826 -63 635 0 619
-1 657 57 25 37 25 109 0 146 -38 58 -23 57 -648 57 -347 0 -596 4 -628 10
-75 14 -185 69 -243 121 -62 55 -120 144 -149 228 l-22 66 -5 1025 c-4 821 -8
1030 -18 1048 -18 32 -71 62 -107 62 -16 0 -44 -8 -62 -16z"
    />
    <path
      d="M36692 10970 c-66 -41 -62 41 -62 -1385 0 -1407 -3 -1338 55 -1383
33 -26 102 -29 145 -7 64 33 60 -56 60 1395 l0 1320 -33 36 c-43 47 -113 57
-165 24z"
    />
    <path
      d="M33545 10958 c-58 -45 -55 24 -55 -1385 0 -1216 1 -1300 18 -1333 23
-47 74 -72 132 -67 35 4 51 13 77 41 l33 36 0 1320 c0 1451 4 1362 -60 1395
-43 22 -112 19 -145 -7z"
    />
    <path
      d="M35352 10964 c-53 -37 -52 -18 -52 -774 l0 -700 33 -36 c43 -47 113
-57 165 -24 64 39 62 20 62 765 0 733 1 719 -55 763 -34 27 -119 30 -153 6z"
    />
    <path
      d="M39010 10955 c-369 -75 -652 -369 -710 -737 -8 -51 -10 -250 -8 -673
4 -589 4 -601 26 -675 104 -344 372 -585 719 -645 129 -23 4097 -23 4226 0
347 60 615 301 719 645 22 74 22 86 26 675 2 423 0 622 -8 673 -37 237 -179
463 -373 594 -74 50 -201 110 -287 134 -62 18 -152 19 -2165 21 -1706 1 -2112
-1 -2165 -12z m4293 -272 c167 -64 300 -175 370 -310 65 -124 77 -195 77 -440
l0 -213 -2600 0 -2600 0 0 213 c0 246 12 317 77 440 84 159 260 292 436 327
23 4 974 7 2112 6 l2070 -1 58 -22z m445 -1455 c-4 -216 -7 -250 -26 -308 -64
-194 -221 -352 -415 -417 l-82 -28 -2075 0 -2075 0 -82 28 c-194 65 -351 223
-415 417 -19 58 -22 92 -26 308 l-4 242 2602 0 2602 0 -4 -242z"
    />
    <path
      d="M4 8053 c4 -21 23 -112 42 -203 335 -1581 978 -2966 1939 -4171 866
-1086 1895 -1927 3107 -2539 599 -303 1102 -496 1811 -695 32 -8 55 -20 52
-24 -5 -9 309 -89 555 -141 731 -155 1596 -236 2895 -270 506 -13 7700 -13
7820 0 375 42 749 190 1053 417 102 76 297 267 382 374 158 197 423 585 672
984 203 325 414 677 426 714 45 128 -26 284 -153 337 -30 12 -526 14 -3732 14
-6427 1 -7671 31 -8583 211 -1076 211 -2063 658 -2915 1318 -611 473 -1142
1056 -1564 1719 -201 315 -413 717 -569 1079 -86 198 -143 296 -244 418 -194
235 -459 393 -783 468 -88 20 -118 21 -1154 24 l-1063 4 6 -38z"
    />
    <path
      d="M47994 6848 c-16 -4 -40 -18 -51 -30 -12 -13 -364 -874 -788 -1927
-814 -2020 -779 -1927 -739 -1989 35 -54 128 -63 176 -18 15 13 92 192 217
501 106 264 243 603 303 753 l111 272 805 -2 805 -3 297 -740 c186 -464 307
-752 323 -771 63 -75 188 -38 204 60 5 31 -95 286 -758 1938 -420 1046 -773
1913 -784 1926 -24 28 -78 42 -121 30z m390 -1323 c189 -473 343 -861 342
-862 -2 -2 -317 -2 -702 -1 l-699 3 349 868 c192 477 353 864 357 860 4 -5
163 -395 353 -868z"
    />
    <path
      d="M50154 6846 c-17 -7 -40 -26 -52 -41 l-22 -28 0 -1922 0 -1922 22
-28 c70 -89 207 -53 223 58 3 23 5 890 3 1927 -3 1737 -4 1887 -20 1908 -36
52 -101 72 -154 48z"
    />
    <path
      d="M25890 6834 c-884 -65 -1612 -688 -1804 -1546 -30 -131 -27 -164 16
-205 24 -23 38 -28 78 -28 75 0 103 32 125 143 42 212 163 492 290 667 263
366 651 617 1090 706 156 31 439 38 591 14 666 -104 1205 -554 1413 -1181 74
-220 85 -298 85 -559 0 -201 -3 -243 -22 -334 -48 -218 -132 -429 -240 -597
-44 -68 -52 -88 -52 -128 0 -39 5 -53 28 -76 37 -37 89 -47 134 -26 67 32 215
302 291 533 214 646 86 1356 -340 1883 -72 89 -243 257 -328 321 -272 208
-591 344 -922 394 -101 15 -340 25 -433 19z"
    />
    <path
      d="M28994 6194 c-94 -33 -170 -136 -181 -246 -12 -113 48 -228 148 -283
49 -27 63 -30 144 -30 103 0 147 18 209 81 58 60 80 117 81 205 0 65 -5 85
-30 135 -34 65 -101 124 -165 143 -51 15 -156 13 -206 -5z m174 -199 c38 -32
48 -74 28 -114 -35 -67 -103 -81 -158 -32 -27 24 -33 36 -33 71 0 35 6 47 33
71 42 37 89 39 130 4z"
    />
    <path
      d="M30850 5199 c-255 -55 -482 -191 -658 -393 l-42 -49 0 107 0 106 -34
38 c-32 34 -39 37 -90 37 -49 0 -59 -4 -88 -33 l-33 -32 -3 -1025 -2 -1025 34
-37 c32 -35 39 -38 90 -38 49 0 59 4 88 33 l33 32 5 653 5 652 29 85 c111 330
352 563 671 650 120 33 302 38 427 12 160 -33 312 -107 428 -209 134 -116 227
-251 282 -406 55 -155 58 -196 58 -836 0 -563 1 -587 20 -618 40 -66 150 -66
191 1 18 30 19 57 19 642 0 662 -3 703 -56 863 -129 389 -436 674 -843 783
-117 31 -402 35 -531 7z"
    />
    <path
      d="M33705 5200 c-116 -25 -187 -51 -305 -111 -124 -64 -207 -127 -316
-242 -439 -463 -427 -1194 26 -1647 394 -395 1012 -461 1480 -159 60 39 133
99 198 164 l102 102 0 -377 c0 -350 -1 -383 -20 -443 -126 -408 -490 -694
-917 -722 -127 -9 -266 12 -398 59 -147 53 -242 114 -372 240 -132 128 -128
126 -173 126 -83 0 -136 -76 -110 -155 16 -50 179 -212 283 -283 113 -78 269
-149 404 -184 109 -29 131 -31 293 -32 190 -1 258 8 402 55 374 121 679 427
801 804 58 180 57 144 57 1412 l0 1165 -34 34 c-30 30 -41 34 -84 34 -93 0
-132 -56 -132 -189 l0 -80 -97 97 c-180 181 -396 296 -631 337 -121 21 -343
19 -457 -5z m498 -244 c272 -81 484 -261 604 -512 68 -143 83 -218 83 -409 0
-145 -3 -173 -26 -251 -148 -515 -690 -814 -1187 -657 -157 49 -269 115 -386
227 -287 276 -373 685 -220 1052 97 233 311 439 545 523 141 51 204 61 359 57
114 -3 156 -9 228 -30z"
    />
    <path
      d="M36520 5205 c-411 -77 -768 -387 -899 -780 -82 -245 -82 -525 -1
-767 211 -630 907 -960 1539 -729 134 49 289 143 309 186 27 60 -1 145 -54
165 -50 20 -87 11 -164 -37 -190 -117 -401 -167 -607 -143 -389 47 -706 315
-813 690 -31 107 -39 317 -16 429 45 220 165 417 339 556 234 187 541 253 832
179 79 -20 226 -90 310 -148 74 -50 113 -58 165 -31 66 34 78 130 23 187 -41
42 -175 126 -266 165 -150 65 -251 85 -447 89 -122 2 -198 -1 -250 -11z"
    />
    <path
      d="M38726 5205 c-604 -125 -1008 -663 -955 -1271 46 -525 425 -952 943
-1058 637 -132 1269 285 1400 924 60 295 3 611 -156 868 -61 97 -200 249 -297
323 -94 71 -286 164 -406 195 -87 23 -124 27 -280 30 -128 2 -200 -1 -249 -11z
m479 -249 c388 -116 654 -433 694 -828 29 -288 -77 -568 -290 -774 -85 -81
-136 -118 -234 -166 -144 -72 -271 -101 -435 -100 -430 3 -800 296 -916 727
-29 108 -27 352 4 458 96 333 334 581 649 677 111 34 158 39 303 36 111 -3
151 -8 225 -30z"
    />
    <path
      d="M41610 5205 c-229 -42 -445 -159 -622 -337 l-98 -98 0 85 c0 102 -16
147 -62 175 -40 24 -79 25 -124 4 -68 -32 -64 32 -64 -1090 l0 -1016 33 -33
c44 -44 93 -53 144 -29 76 37 73 12 73 707 0 594 1 622 21 700 84 330 350 598
684 689 110 30 356 32 460 4 395 -106 676 -425 724 -821 7 -56 11 -307 11
-658 l0 -569 28 -28 c58 -58 153 -45 187 26 14 31 16 97 12 662 -3 555 -6 636
-21 702 -112 477 -462 826 -923 919 -120 25 -343 27 -463 6z"
    />
    <path
      d="M44360 5199 c-396 -85 -724 -368 -867 -749 -64 -168 -88 -403 -60
-585 78 -508 464 -905 967 -996 175 -32 418 -13 590 46 175 59 318 151 463
296 l98 98 -3 -392 c-3 -385 -3 -393 -27 -457 -82 -223 -219 -401 -405 -524
-343 -229 -773 -231 -1116 -5 -52 34 -129 99 -188 158 -90 92 -103 101 -136
101 -106 0 -159 -98 -100 -186 95 -143 308 -302 512 -384 169 -68 258 -84 467
-84 193 0 285 15 435 71 412 155 725 534 795 963 22 141 23 2366 0 2410 -21
41 -53 60 -103 60 -97 0 -132 -51 -132 -190 l0 -91 -50 60 c-141 170 -368 308
-609 373 -117 31 -402 35 -531 7z m483 -238 c338 -90 600 -356 688 -698 28
-110 27 -343 -2 -456 -53 -209 -178 -397 -350 -527 -442 -333 -1064 -224
-1367 239 -109 166 -155 322 -155 521 0 153 24 262 87 396 55 115 91 168 178
260 143 150 323 245 548 288 63 12 297 -2 373 -23z"
    />
    <path
      d="M29033 5035 c-67 -29 -63 33 -63 -1091 l0 -1016 34 -34 c30 -30 40
-34 85 -34 44 0 56 5 89 34 l37 34 3 1006 c3 1109 5 1056 -60 1096 -38 23 -80
25 -125 5z"
    />
    <path
      d="M24144 4571 c-12 -5 -31 -22 -43 -37 -29 -36 -27 -96 4 -212 174
-634 664 -1150 1291 -1360 117 -39 295 -78 416 -91 63 -7 513 -11 1264 -11
l1166 0 34 34 c29 29 34 41 34 80 0 36 -6 52 -29 78 l-29 33 -1219 6 c-1312 6
-1235 3 -1453 59 -269 69 -545 223 -757 424 -261 247 -410 509 -518 908 -11
39 -23 63 -40 74 -30 19 -92 27 -121 15z"
    />
  </g>
</svg>
