<?xml version="1.0" standalone="no"?>
<!DOCTYPE svg PUBLIC "-//W3C//DTD SVG 1.1//EN" "http://www.w3.org/Graphics/SVG/1.1/DTD/svg11.dtd">
<svg
  t="1692540912662"
  class="icon"
  viewBox="0 0 1024 1024"
  version="1.1"
  xmlns="http://www.w3.org/2000/svg"
  p-id="1645"
  xmlns:xlink="http://www.w3.org/1999/xlink"
  width="200"
  height="200"
>
  <path
    d="M968.348 519.524v422.957c0 15.582-11.13 26.713-26.713 26.713H80.139c-15.582 0-28.939-11.13-28.939-26.713V519.524h291.617c6.679 35.618 22.261 71.235 51.2 97.948C425.183 648.637 467.478 664.22 512 664.22s84.591-17.809 117.983-46.748c26.713-26.713 44.521-60.104 51.2-97.948h287.165zM658.922 470.55c-13.357 0-22.261 11.13-22.261 24.487 0 66.783-55.652 122.435-122.435 122.435S391.791 561.82 391.791 495.037c0-13.356-11.13-24.487-22.26-24.487H93.495l146.921-133.565H785.81L930.504 470.55H658.922z m351.721 2.226L814.748 292.463c-4.452-6.678-13.357-8.904-22.261-8.904H231.513c-8.904 0-17.809 4.452-22.26 8.904L11.13 472.776C4.452 479.455 0 490.585 0 499.49v440.766c0 44.521 35.617 80.139 80.14 80.139h861.495c44.522 0 80.139-35.618 80.139-80.14V499.49c2.226-8.904-4.452-20.034-11.13-26.713z m-420.73 296.07c2.226 11.13 11.13 15.583 31.165 13.356 33.392-6.678 48.974-2.226 57.879-4.452 8.904-4.452 11.13-17.808-4.453-22.26-15.582-6.679-33.391 2.225-35.617-2.227-2.226-2.226 4.452-8.904 17.809-11.13 15.582-4.452 31.165-4.452 28.939-15.583-4.452-15.582-26.713-17.808-44.522-13.356-22.26 2.226-55.652 28.939-51.2 55.652z m-209.252-57.878c-15.583-4.453-37.844-2.226-44.522 13.356-2.226 8.905 13.357 11.13 28.94 15.583 11.13 2.226 17.808 8.904 17.808 11.13-2.226 4.452-20.035-4.452-35.617 2.226-15.583 6.679-13.357 20.035-4.453 22.261 8.905 4.452 24.487 0 57.879 4.452 17.808 2.226 28.939-2.226 31.165-13.356 4.452-24.487-28.94-51.2-51.2-55.652zM512 831.176c-31.165 0-55.652 24.487-55.652 55.653 0 6.678 4.452 11.13 11.13 11.13s11.13-4.452 11.13-11.13c0-17.81 15.583-33.392 33.392-33.392 20.035 0 33.391 15.583 33.391 33.392 0 6.678 4.452 11.13 11.13 11.13s11.131-4.452 11.131-11.13c0-31.166-24.487-55.653-55.652-55.653z m-55.652 57.879v-2.226 2.226z"
    fill="#dbdbdb"
    p-id="1646"
  ></path>
  <path
    d="M968.348 519.524v422.957c0 15.582-11.13 26.713-26.713 26.713H80.139c-15.582 0-28.939-11.13-28.939-26.713V519.524h291.617c6.679 35.618 22.261 71.235 51.2 97.948C425.183 648.637 467.478 664.22 512 664.22s84.591-17.809 117.983-46.748c26.713-26.713 44.521-60.104 51.2-97.948h287.165zM658.922 470.55c-13.357 0-22.261 11.13-22.261 24.487 0 66.783-55.652 122.435-122.435 122.435S391.791 561.82 391.791 495.037c0-13.356-11.13-24.487-22.26-24.487H93.495l146.921-133.565H785.81L930.504 470.55H658.922z m351.721 2.226L814.748 292.463c-4.452-6.678-13.357-8.904-22.261-8.904H231.513c-8.904 0-17.809 4.452-22.26 8.904L11.13 472.776C4.452 479.455 0 490.585 0 499.49v440.766c0 44.521 35.617 80.139 80.14 80.139h861.495c44.522 0 80.139-35.618 80.139-80.14V499.49c2.226-8.904-4.452-20.034-11.13-26.713z m-420.73 296.07c2.226 11.13 11.13 15.583 31.165 13.356 33.392-6.678 48.974-2.226 57.879-4.452 8.904-4.452 11.13-17.808-4.453-22.26-15.582-6.679-33.391 2.225-35.617-2.227-2.226-2.226 4.452-8.904 17.809-11.13 15.582-4.452 31.165-4.452 28.939-15.583-4.452-15.582-26.713-17.808-44.522-13.356-22.26 2.226-55.652 28.939-51.2 55.652z m-209.252-57.878c-15.583-4.453-37.844-2.226-44.522 13.356-2.226 8.905 13.357 11.13 28.94 15.583 11.13 2.226 17.808 8.904 17.808 11.13-2.226 4.452-20.035-4.452-35.617 2.226-15.583 6.679-13.357 20.035-4.453 22.261 8.905 4.452 24.487 0 57.879 4.452 17.808 2.226 28.939-2.226 31.165-13.356 4.452-24.487-28.94-51.2-51.2-55.652zM512 831.176c-31.165 0-55.652 24.487-55.652 55.653 0 6.678 4.452 11.13 11.13 11.13s11.13-4.452 11.13-11.13c0-17.81 15.583-33.392 33.392-33.392 20.035 0 33.391 15.583 33.391 33.392 0 6.678 4.452 11.13 11.13 11.13s11.131-4.452 11.131-11.13c0-31.166-24.487-55.653-55.652-55.653z m-55.652 57.879v-2.226 2.226zM727.93 193.67c-4.452-4.453-6.678-11.13-6.678-15.583 0-6.678 2.226-13.357 6.678-17.809l84.592-86.817c8.904-8.904 24.487-8.904 33.391 0s8.904 24.487 0 33.391l-84.591 86.818c-4.452 4.452-8.905 6.678-15.583 6.678-6.678 0-13.356-2.226-17.809-6.678m-231.513-31.166c-4.452-4.452-6.678-11.13-6.678-17.808l-2.226-120.209C487.513 11.13 498.643 0 509.773 0c13.357 0 24.488 8.904 24.488 22.26l2.226 120.21c0 8.904-4.452 17.808-13.357 22.26-8.904 4.453-17.808 2.227-26.713-2.226m-244.87 35.618l-89.043-82.365c-8.904-8.905-8.904-24.487 0-33.392 8.905-8.904 24.487-8.904 33.392 0l89.043 82.365c8.904 8.905 8.904 24.487 0 33.392-8.904 8.904-24.487 8.904-33.391 0"
    fill="#dbdbdb"
    p-id="1647"
  ></path>
</svg>
